# Blender v2.76 (sub 0) OBJ File: 'Podest.blend'
# www.blender.org
mtllib Podest.mtl
o Cylinder
v 0.114734 0.044104 -0.136235
v 0.114734 1.031898 -0.136235
v 0.161867 0.044104 -0.131593
v 0.161867 1.031898 -0.131593
v 0.207189 0.044104 -0.117845
v 0.207189 1.031898 -0.117845
v 0.248958 0.044104 -0.095519
v 0.248958 1.031898 -0.095519
v 0.285569 0.044104 -0.065473
v 0.285569 1.031898 -0.065473
v 0.315614 0.044104 -0.028862
v 0.315614 1.031898 -0.028862
v 0.337940 0.044104 0.012907
v 0.337940 1.031898 0.012907
v 0.351689 0.044104 0.058229
v 0.351689 1.031898 0.058229
v 0.356331 0.044104 0.105362
v 0.356331 1.031898 0.105362
v 0.351689 0.044104 0.152495
v 0.351689 1.031898 0.152495
v 0.337940 0.044104 0.197817
v 0.337940 1.031898 0.197817
v 0.315614 0.044104 0.239586
v 0.315614 1.031898 0.239586
v 0.285569 0.044104 0.276196
v 0.285569 1.031898 0.276196
v 0.248958 0.044104 0.306242
v 0.248958 1.031898 0.306242
v 0.207189 0.044104 0.328568
v 0.207189 1.031898 0.328568
v 0.161867 0.044104 0.342316
v 0.161867 1.031898 0.342316
v 0.114734 0.044104 0.346959
v 0.114734 1.031898 0.346959
v 0.067601 0.044104 0.342316
v 0.067601 1.031898 0.342316
v 0.022279 0.044104 0.328568
v 0.022279 1.031898 0.328568
v -0.019490 0.044104 0.306242
v -0.019490 1.031898 0.306242
v -0.056101 0.044104 0.276196
v -0.056101 1.031898 0.276196
v -0.086146 0.044104 0.239586
v -0.086146 1.031898 0.239586
v -0.108472 0.044104 0.197817
v -0.108472 1.031898 0.197817
v -0.122220 0.044104 0.152495
v -0.122220 1.031898 0.152495
v -0.126863 0.044104 0.105361
v -0.126863 1.031898 0.105361
v -0.122220 0.044104 0.058228
v -0.122220 1.031898 0.058228
v -0.108472 0.044104 0.012906
v -0.108472 1.031898 0.012906
v -0.086146 0.044104 -0.028862
v -0.086146 1.031898 -0.028862
v -0.056100 0.044104 -0.065473
v -0.056100 1.031898 -0.065473
v -0.019490 0.044104 -0.095519
v -0.019490 1.031898 -0.095519
v 0.022279 0.044104 -0.117845
v 0.022279 1.031898 -0.117845
v 0.067601 0.044104 -0.131593
v 0.067601 1.031898 -0.131593
v -0.096227 1.035875 0.246233
v -0.096227 1.151527 0.246233
v -0.096227 1.035875 -0.092662
v -0.096227 1.038404 -0.092662
v 0.317938 1.035875 0.246233
v 0.317938 1.151527 0.246233
v 0.317938 1.035875 -0.092662
v 0.317938 1.038404 -0.092662
v 0.152884 1.167287 0.171670
v 0.153013 1.116005 0.182759
v 0.168963 1.165182 0.161746
v 0.169092 1.113899 0.172835
v 0.182754 1.162449 0.148948
v 0.182883 1.111167 0.160037
v 0.193727 1.159194 0.133767
v 0.193857 1.107912 0.144856
v 0.201460 1.155542 0.116787
v 0.201589 1.104260 0.127876
v 0.205657 1.151634 0.098661
v 0.205786 1.100351 0.109750
v 0.206155 1.147618 0.080084
v 0.206284 1.096336 0.091173
v 0.202936 1.143651 0.061772
v 0.203065 1.092368 0.072860
v 0.196123 1.139883 0.044427
v 0.196252 1.088601 0.055515
v 0.185979 1.136460 0.028716
v 0.186108 1.085178 0.039805
v 0.172892 1.133514 0.015243
v 0.173021 1.082232 0.026332
v 0.157366 1.131158 0.004526
v 0.157495 1.079875 0.015615
v 0.139998 1.129481 -0.003024
v 0.140128 1.078199 0.008065
v 0.121455 1.128550 -0.007116
v 0.121584 1.077268 0.003973
v 0.102449 1.128398 -0.007593
v 0.102579 1.077116 0.003496
v 0.135263 1.117402 0.189427
v 0.135134 1.168684 0.178338
v 0.116526 1.118037 0.192583
v 0.116396 1.169319 0.181494
v 0.097520 1.117886 0.192106
v 0.097391 1.169168 0.181017
v 0.078977 1.116954 0.188014
v 0.078848 1.168237 0.176925
v 0.061609 1.115278 0.180464
v 0.061480 1.166560 0.169376
v 0.046084 1.112922 0.169747
v 0.045954 1.164204 0.158658
v 0.032997 1.109976 0.156274
v 0.032868 1.161258 0.145186
v 0.022852 1.106553 0.140563
v 0.022723 1.157835 0.129475
v 0.016040 1.102785 0.123218
v 0.015910 1.154068 0.112130
v 0.012821 1.098817 0.104906
v 0.012691 1.150100 0.093817
v 0.013319 1.094802 0.086329
v 0.013189 1.146084 0.075241
v 0.017515 1.090893 0.068203
v 0.017386 1.142175 0.057114
v 0.025248 1.087241 0.051223
v 0.025119 1.138523 0.040134
v 0.036222 1.083986 0.036042
v 0.036092 1.135269 0.024954
v 0.050013 1.081254 0.023244
v 0.049883 1.132536 0.012155
v 0.066092 1.079149 0.013320
v 0.065963 1.130431 0.002232
v 0.083842 1.077752 0.006652
v 0.083712 1.129034 -0.004437
vt 1.000000 0.000000
vt 1.000000 1.000000
vt 0.000000 1.000000
vt 0.000000 0.000000
vt 0.597545 0.009607
vt 0.009607 0.402455
vt 0.990393 0.597545
vt 0.402456 0.990393
vt 0.500000 1.000000
vt 0.777785 0.915735
vt 0.597545 0.990393
vt 0.691342 0.961940
vt 0.853553 0.853553
vt 0.915735 0.777785
vt 0.961940 0.691342
vt 1.000000 0.500000
vt 0.990393 0.402455
vt 0.961940 0.308658
vt 0.915735 0.222215
vt 0.853553 0.146447
vt 0.777785 0.084265
vt 0.691342 0.038060
vt 0.500000 0.000000
vt 0.402455 0.009607
vt 0.308658 0.038060
vt 0.222215 0.084265
vt 0.146446 0.146447
vt 0.084265 0.222215
vt 0.038060 0.308659
vt 0.000000 0.500000
vt 0.084266 0.777786
vt 0.009607 0.597546
vt 0.038060 0.691342
vt 0.146447 0.853554
vt 0.222215 0.915735
vt 0.308659 0.961940
vn 0.026200 -0.211200 -0.977100
vn 0.220700 -0.205600 -0.953400
vn 0.406800 -0.192100 -0.893100
vn 0.577200 -0.171200 -0.798500
vn 0.725400 -0.143700 -0.673200
vn 0.845700 -0.110700 -0.522000
vn 0.933600 -0.073500 -0.350700
vn 0.985600 -0.033400 -0.166000
vn 0.999700 0.008000 0.025100
vn 0.975300 0.049000 0.215200
vn 0.913500 0.088200 0.397100
vn 0.816600 0.123900 0.563700
vn 0.688300 0.155000 0.708700
vn 0.533600 0.180000 0.826400
vn 0.358300 0.198200 0.912300
vn 0.169300 0.208700 0.963200
vn -0.026200 0.211200 0.977100
vn -0.220700 0.205600 0.953400
vn -0.406800 0.192100 0.893100
vn -0.577200 0.171200 0.798500
vn -0.725400 0.143700 0.673200
vn -0.845700 0.110700 0.522000
vn -0.933600 0.073500 0.350700
vn -0.985600 0.033400 0.166000
vn -0.999700 -0.007900 -0.025100
vn -0.975300 -0.049000 -0.215200
vn -0.913500 -0.088200 -0.397100
vn -0.816600 -0.123900 -0.563700
vn -0.688300 -0.155000 -0.708600
vn -0.533600 -0.180000 -0.826400
vn -0.002500 0.977400 -0.211300
vn -0.169300 -0.208700 -0.963200
vn -0.358300 -0.198200 -0.912300
vn 0.002500 -0.977400 0.211300
vn 0.999700 0.007900 0.025100
vn -0.002500 0.977400 -0.211400
vn -0.002400 0.977400 -0.211300
vn -0.002600 0.977400 -0.211200
vn -0.002500 0.977500 -0.211100
vn -0.002600 0.977400 -0.211300
vn -0.002400 0.977400 -0.211400
vn 0.002500 -0.977400 0.211400
vn 0.002500 -0.977400 0.211200
vn 0.002400 -0.977400 0.211300
vn 0.002600 -0.977400 0.211400
vn 0.002400 -0.977400 0.211400
vn 0.098000 0.000000 -0.995200
vn 0.290300 0.000000 -0.956900
vn 0.471400 0.000000 -0.881900
vn 0.634400 0.000000 -0.773000
vn 0.773000 0.000000 -0.634400
vn 0.881900 0.000000 -0.471400
vn 0.956900 0.000000 -0.290300
vn 0.995200 0.000000 -0.098000
vn 0.995200 0.000000 0.098000
vn 0.956900 0.000000 0.290300
vn 0.881900 0.000000 0.471400
vn 0.773000 0.000000 0.634400
vn 0.634400 0.000000 0.773000
vn 0.471400 0.000000 0.881900
vn 0.290300 0.000000 0.956900
vn 0.098000 0.000000 0.995200
vn -0.098000 0.000000 0.995200
vn -0.290300 0.000000 0.956900
vn -0.471400 0.000000 0.881900
vn -0.634400 0.000000 0.773000
vn -0.773000 0.000000 0.634400
vn -0.881900 0.000000 0.471400
vn -0.956900 0.000000 0.290300
vn -0.995200 0.000000 0.098000
vn -0.995200 0.000000 -0.098000
vn -0.956900 0.000000 -0.290300
vn -0.881900 0.000000 -0.471400
vn -0.773000 0.000000 -0.634400
vn -0.634400 0.000000 -0.773000
vn -0.471400 0.000000 -0.881900
vn 0.000000 1.000000 -0.000000
vn -0.098000 0.000000 -0.995200
vn -0.290300 0.000000 -0.956900
vn 0.000000 -1.000000 0.000000
vn -1.000000 0.000000 0.000000
vn 0.000000 0.000000 -1.000000
vn 1.000000 0.000000 0.000000
vn 0.000000 0.000000 1.000000
vn 0.000000 0.948600 -0.316600
usemtl None
s off
f 101/1/1 99/2/1 100/3/1
f 99/1/2 97/2/2 98/3/2
f 98/4/3 97/1/3 95/2/3
f 95/1/4 93/2/4 94/3/4
f 93/1/5 91/2/5 92/3/5
f 92/4/6 91/1/6 89/2/6
f 89/1/7 87/2/7 88/3/7
f 88/4/8 87/1/8 85/2/8
f 85/1/9 83/2/9 84/3/9
f 84/4/10 83/1/10 81/2/10
f 81/1/11 79/2/11 80/3/11
f 80/4/12 79/1/12 77/2/12
f 78/4/13 77/1/13 75/2/13
f 76/4/14 75/1/14 73/2/14
f 74/4/15 73/1/15 104/2/15
f 104/1/16 106/2/16 105/3/16
f 106/1/17 108/2/17 107/3/17
f 107/4/18 108/1/18 110/2/18
f 109/4/19 110/1/19 112/2/19
f 112/1/20 114/2/20 113/3/20
f 113/4/21 114/1/21 116/2/21
f 115/4/22 116/1/22 118/2/22
f 118/1/23 120/2/23 119/3/23
f 120/1/24 122/2/24 121/3/24
f 122/1/25 124/2/25 123/3/25
f 123/4/26 124/1/26 126/2/26
f 126/1/27 128/2/27 127/3/27
f 127/4/28 128/1/28 130/2/28
f 129/4/29 130/1/29 132/2/29
f 131/4/30 132/1/30 134/2/30
f 110/5/31 81/6/31 126/7/31
f 135/4/32 136/1/32 101/2/32
f 134/1/33 136/2/33 135/3/33
f 103/5/34 119/6/34 88/7/34
f 102/4/1 101/1/1 100/3/1
f 100/4/2 99/1/2 98/3/2
f 96/3/3 98/4/3 95/2/3
f 96/4/4 95/1/4 94/3/4
f 94/4/5 93/1/5 92/3/5
f 90/3/6 92/4/6 89/2/6
f 90/4/7 89/1/7 88/3/7
f 86/3/8 88/4/8 85/2/8
f 86/4/35 85/1/35 84/3/35
f 82/3/10 84/4/10 81/2/10
f 82/4/11 81/1/11 80/3/11
f 78/3/12 80/4/12 77/2/12
f 76/3/13 78/4/13 75/2/13
f 74/3/14 76/4/14 73/2/14
f 103/3/15 74/4/15 104/2/15
f 103/4/16 104/1/16 105/3/16
f 105/4/17 106/1/17 107/3/17
f 109/3/18 107/4/18 110/2/18
f 111/3/19 109/4/19 112/2/19
f 111/4/20 112/1/20 113/3/20
f 115/3/21 113/4/21 116/2/21
f 117/3/22 115/4/22 118/2/22
f 117/4/23 118/1/23 119/3/23
f 119/4/24 120/1/24 121/3/24
f 121/4/25 122/1/25 123/3/25
f 125/3/26 123/4/26 126/2/26
f 125/4/27 126/1/27 127/3/27
f 129/3/28 127/4/28 130/2/28
f 131/3/29 129/4/29 132/2/29
f 133/3/30 131/4/30 134/2/30
f 97/8/36 99/9/36 134/10/36
f 101/11/37 136/12/37 134/10/37
f 134/10/36 132/13/36 130/14/36
f 130/14/36 128/15/36 126/7/36
f 126/7/36 124/16/36 122/17/36
f 122/17/37 120/18/37 118/19/37
f 118/19/38 116/20/38 114/21/38
f 114/21/39 112/22/39 110/5/39
f 110/5/36 108/23/36 106/24/36
f 106/24/36 104/25/36 73/26/36
f 73/26/31 75/27/31 81/6/31
f 77/28/31 79/29/31 81/6/31
f 81/6/31 83/30/31 89/31/31
f 85/32/40 87/33/40 89/31/40
f 89/31/41 91/34/41 93/35/41
f 93/35/36 95/36/36 89/31/36
f 99/9/36 101/11/36 134/10/36
f 134/10/31 130/14/31 126/7/31
f 126/7/37 122/17/37 118/19/37
f 118/19/31 114/21/31 126/7/31
f 110/5/31 106/24/31 81/6/31
f 75/27/31 77/28/31 81/6/31
f 83/30/41 85/32/41 89/31/41
f 89/31/31 95/36/31 97/8/31
f 97/8/31 134/10/31 126/7/31
f 126/7/31 114/21/31 110/5/31
f 106/24/31 73/26/31 81/6/31
f 81/6/31 89/31/31 97/8/31
f 97/8/31 126/7/31 81/6/31
f 102/3/32 135/4/32 101/2/32
f 133/4/33 134/1/33 135/3/33
f 135/8/42 102/9/42 100/11/42
f 100/11/34 98/12/34 96/10/34
f 96/10/43 94/13/43 92/14/43
f 92/14/34 90/15/34 96/10/34
f 88/7/34 86/16/34 84/17/34
f 84/17/44 82/18/44 88/7/44
f 80/19/42 78/20/42 76/21/42
f 76/21/34 74/22/34 103/5/34
f 103/5/42 105/23/42 111/26/42
f 107/24/42 109/25/42 111/26/42
f 111/26/34 113/27/34 119/6/34
f 115/28/34 117/29/34 119/6/34
f 119/6/34 121/30/34 127/31/34
f 123/32/45 125/33/45 127/31/45
f 127/31/42 129/34/42 131/35/42
f 131/35/34 133/36/34 127/31/34
f 135/8/34 100/11/34 88/7/34
f 96/10/34 90/15/34 88/7/34
f 88/7/34 82/18/34 76/21/34
f 80/19/42 76/21/42 82/18/42
f 105/23/42 107/24/42 111/26/42
f 113/27/46 115/28/46 119/6/46
f 121/30/44 123/32/44 127/31/44
f 127/31/42 133/36/42 135/8/42
f 100/11/42 96/10/42 88/7/42
f 88/7/34 76/21/34 103/5/34
f 103/5/34 111/26/34 119/6/34
f 119/6/34 127/31/34 135/8/34
f 135/8/34 88/7/34 119/6/34
usemtl None_NONE
f 2/4/47 4/4/47 3/4/47
f 4/4/48 6/4/48 5/4/48
f 6/4/49 8/4/49 7/4/49
f 8/4/50 10/4/50 9/4/50
f 10/4/51 12/4/51 11/4/51
f 12/4/52 14/4/52 13/4/52
f 14/4/53 16/4/53 15/4/53
f 16/4/54 18/4/54 17/4/54
f 18/4/55 20/4/55 19/4/55
f 20/4/56 22/4/56 21/4/56
f 22/4/57 24/4/57 23/4/57
f 24/4/58 26/4/58 25/4/58
f 26/4/59 28/4/59 27/4/59
f 28/4/60 30/4/60 29/4/60
f 30/4/61 32/4/61 31/4/61
f 32/4/62 34/4/62 33/4/62
f 34/4/63 36/4/63 35/4/63
f 36/4/64 38/4/64 37/4/64
f 38/4/65 40/4/65 39/4/65
f 40/4/66 42/4/66 41/4/66
f 42/4/67 44/4/67 43/4/67
f 44/4/68 46/4/68 45/4/68
f 46/4/69 48/4/69 47/4/69
f 48/4/70 50/4/70 49/4/70
f 50/4/71 52/4/71 51/4/71
f 52/4/72 54/4/72 53/4/72
f 54/4/73 56/4/73 55/4/73
f 56/4/74 58/4/74 57/4/74
f 58/4/75 60/4/75 59/4/75
f 60/4/76 62/4/76 61/4/76
f 38/4/77 14/4/77 6/4/77
f 64/4/78 2/4/78 1/4/78
f 62/4/79 64/4/79 63/4/79
f 31/4/80 47/4/80 15/4/80
f 68/4/81 67/4/81 65/4/81
f 72/4/82 71/4/82 67/4/82
f 72/4/83 70/4/83 69/4/83
f 66/4/84 65/4/84 69/4/84
f 67/4/80 71/4/80 69/4/80
f 72/4/85 68/4/85 66/4/85
f 1/4/47 2/4/47 3/4/47
f 3/4/48 4/4/48 5/4/48
f 5/4/49 6/4/49 7/4/49
f 7/4/50 8/4/50 9/4/50
f 9/4/51 10/4/51 11/4/51
f 11/4/52 12/4/52 13/4/52
f 13/4/53 14/4/53 15/4/53
f 15/4/54 16/4/54 17/4/54
f 17/4/55 18/4/55 19/4/55
f 19/4/56 20/4/56 21/4/56
f 21/4/57 22/4/57 23/4/57
f 23/4/58 24/4/58 25/4/58
f 25/4/59 26/4/59 27/4/59
f 27/4/60 28/4/60 29/4/60
f 29/4/61 30/4/61 31/4/61
f 31/4/62 32/4/62 33/4/62
f 33/4/63 34/4/63 35/4/63
f 35/4/64 36/4/64 37/4/64
f 37/4/65 38/4/65 39/4/65
f 39/4/66 40/4/66 41/4/66
f 41/4/67 42/4/67 43/4/67
f 43/4/68 44/4/68 45/4/68
f 45/4/69 46/4/69 47/4/69
f 47/4/70 48/4/70 49/4/70
f 49/4/71 50/4/71 51/4/71
f 51/4/72 52/4/72 53/4/72
f 53/4/73 54/4/73 55/4/73
f 55/4/74 56/4/74 57/4/74
f 57/4/75 58/4/75 59/4/75
f 59/4/76 60/4/76 61/4/76
f 6/4/77 4/4/77 2/4/77
f 2/4/77 64/4/77 6/4/77
f 62/4/77 60/4/77 58/4/77
f 58/4/77 56/4/77 62/4/77
f 54/4/77 52/4/77 46/4/77
f 50/4/77 48/4/77 46/4/77
f 46/4/77 44/4/77 38/4/77
f 42/4/77 40/4/77 38/4/77
f 38/4/77 36/4/77 30/4/77
f 34/4/77 32/4/77 30/4/77
f 30/4/77 28/4/77 26/4/77
f 26/4/77 24/4/77 22/4/77
f 22/4/77 20/4/77 18/4/77
f 18/4/77 16/4/77 22/4/77
f 14/4/77 12/4/77 10/4/77
f 10/4/77 8/4/77 6/4/77
f 6/4/77 64/4/77 62/4/77
f 62/4/77 56/4/77 54/4/77
f 52/4/77 50/4/77 46/4/77
f 44/4/77 42/4/77 38/4/77
f 36/4/77 34/4/77 30/4/77
f 30/4/77 26/4/77 38/4/77
f 22/4/77 16/4/77 14/4/77
f 14/4/77 10/4/77 6/4/77
f 6/4/77 62/4/77 38/4/77
f 54/4/77 46/4/77 38/4/77
f 38/4/77 26/4/77 22/4/77
f 22/4/77 14/4/77 38/4/77
f 62/4/77 54/4/77 38/4/77
f 63/4/78 64/4/78 1/4/78
f 61/4/79 62/4/79 63/4/79
f 63/4/80 1/4/80 3/4/80
f 3/4/80 5/4/80 7/4/80
f 7/4/80 9/4/80 11/4/80
f 11/4/80 13/4/80 15/4/80
f 15/4/80 17/4/80 19/4/80
f 19/4/80 21/4/80 23/4/80
f 23/4/80 25/4/80 27/4/80
f 27/4/80 29/4/80 31/4/80
f 31/4/80 33/4/80 35/4/80
f 35/4/80 37/4/80 39/4/80
f 39/4/80 41/4/80 43/4/80
f 43/4/80 45/4/80 47/4/80
f 47/4/80 49/4/80 51/4/80
f 51/4/80 53/4/80 55/4/80
f 55/4/80 57/4/80 63/4/80
f 59/4/80 61/4/80 63/4/80
f 63/4/80 3/4/80 7/4/80
f 7/4/80 11/4/80 63/4/80
f 15/4/80 19/4/80 23/4/80
f 23/4/80 27/4/80 15/4/80
f 31/4/80 35/4/80 47/4/80
f 39/4/80 43/4/80 47/4/80
f 47/4/80 51/4/80 55/4/80
f 57/4/80 59/4/80 63/4/80
f 63/4/80 11/4/80 15/4/80
f 15/4/80 27/4/80 31/4/80
f 35/4/80 39/4/80 47/4/80
f 47/4/80 55/4/80 63/4/80
f 63/4/80 15/4/80 47/4/80
f 66/4/81 68/4/81 65/4/81
f 68/4/82 72/4/82 67/4/82
f 71/4/83 72/4/83 69/4/83
f 70/4/84 66/4/84 69/4/84
f 65/4/80 67/4/80 69/4/80
f 70/4/85 72/4/85 66/4/85
